<?xml version="1.0" encoding="UTF-8"?>
<svg id="Layer_1" xmlns="http://www.w3.org/2000/svg" viewBox="0 0 288.81 280.17">
  <g>
    <path d="M124.12,53.44c-5.49,0-6.44,7.28-6.44,11.2s1.06,6.1,3.98,6.1c5.49,0,6.55-7.05,6.55-11.03,0-4.2-1.18-6.27-4.09-6.27Z"/>
    <path d="M57.92,25.95v71.86h98.33V25.95H57.92ZM93.15,58.54c5.26,1.4,9.46,3.47,9.46,8.96,0,6.44-5.71,10.42-13.61,10.42-4.42,0-11.76-1.23-16.18-5.71l4.76-5.32c2.46,1.85,6.22,4.31,10.98,4.31,2.35,0,3.98-.62,3.98-2.24,0-2.3-3.42-2.58-7.56-3.7-5.66-1.51-8.9-3.7-8.9-8.4,0-6.16,5.43-10.47,13.1-10.47,4.26,0,10.75,1.34,14.9,5.04l-4.82,5.32c-2.18-2.07-5.32-3.64-9.18-3.64-2.18,0-3.98.5-3.98,2.07,0,2.07,3.19,2.35,7.06,3.36ZM121.87,77.58c-8.34,0-15.4-4.98-15.4-14.05s7.11-16.91,17.47-16.91c8.29,0,15.46,5.04,15.46,14.17s-7.11,16.8-17.53,16.8Z"/>
  </g>
  <path d="M83.02,104.36v71.86h172.76v-71.86H83.02ZM127.74,154.98h-10.36l.78-4.42h-.11c-3.47,3.75-7,5.32-10.64,5.32-4.54,0-8.34-2.58-8.34-7.34,0-1.62.45-4.59.84-6.78l2.8-15.74h10.75l-2.58,14.56c-.39,2.24-.62,3.64-.62,4.59,0,1.79.84,3.08,2.86,3.08,1.85,0,3.92-1.12,5.54-2.86l3.36-19.38h10.75l-5.04,28.95ZM184.69,139.24l-2.74,15.74h-10.75l2.58-14.56c.39-2.52.62-3.58.62-4.59,0-1.9-.84-3.13-2.86-3.13-1.68,0-3.53,1.06-4.98,2.74l-3.36,19.54h-10.81l2.63-14.56c.34-2.52.62-3.58.62-4.59,0-1.9-.84-3.13-2.86-3.13-1.74,0-3.53,1.12-5.04,2.8l-3.3,19.49h-10.81l5.1-28.95h10.36l-.84,4.54h.11c3.25-3.64,6.66-5.43,9.97-5.43,3.98,0,7.28,1.74,8.29,5.54h.11c3.42-3.81,6.94-5.54,10.36-5.54,4.82,0,8.51,2.52,8.51,7.39,0,1.62-.45,4.37-.9,6.72ZM238.74,139.24l-2.74,15.74h-10.75l2.58-14.56c.39-2.52.62-3.58.62-4.59,0-1.9-.84-3.13-2.86-3.13-1.68,0-3.53,1.06-4.98,2.74l-3.36,19.54h-10.81l2.63-14.56c.34-2.52.62-3.58.62-4.59,0-1.9-.84-3.13-2.86-3.13-1.74,0-3.53,1.12-5.04,2.8l-3.3,19.49h-10.81l5.1-28.95h10.36l-.84,4.54h.11c3.25-3.64,6.66-5.43,9.97-5.43,3.98,0,7.28,1.74,8.29,5.54h.11c3.42-3.81,6.94-5.54,10.36-5.54,4.82,0,8.51,2.52,8.51,7.39,0,1.62-.45,4.37-.9,6.72Z"/>
  <g>
    <path d="M122.42,224.24c0,2.13,1.46,3.08,3.3,3.08,2.24,0,4.26-1.46,5.43-2.8l.9-4.98h-1.34c-3.7,0-8.29.9-8.29,4.7Z"/>
    <path d="M95.43,209.4c-3.42,0-5.38,2.58-6.27,5.6h10.81c.06-.39.11-.79.11-1.12,0-2.63-1.74-4.48-4.65-4.48Z"/>
    <path d="M30.7,182.36v71.86h163.94v-71.86H30.7ZM48.39,244.57c-1.68,0-3.25-.11-4.87-.5l1.34-7.39c1.12.11,2.18.22,3.64.22,2.3,0,4.54-2.35,5.94-5.94l-5.99-26.94h11.14l2.8,15.85h.11l8.74-15.85h9.18l-18.14,30.74c-3.3,5.6-7.45,9.8-13.89,9.8ZM109.66,220.32h-21.22c.06,4.14,1.74,6.83,5.6,6.83,2.69,0,4.7-1.29,5.94-2.8l8.12,2.97c-2.41,3.08-6.55,6.66-14.22,6.66-8.12,0-15.51-3.97-15.51-13.72,0-9.07,6.38-17.25,17.08-17.25,8.9,0,14.39,5.71,14.39,14.45,0,.9-.06,1.9-.17,2.86ZM142.53,218.92l-1.46,8.85c-.22,1.23-.39,2.63-.56,5.21h-9.86c.06-1.01.11-2.18.28-3.47h-.11c-3.02,2.63-5.99,4.37-10.19,4.37-4.54,0-9.41-2.13-9.41-8.4,0-8.34,8.68-10.75,17.08-10.75.78,0,2.24,0,4.59.11.17-.9.28-1.4.28-1.9,0-2.24-1.68-3.58-4.09-3.58-2.18,0-3.58,1.06-4.87,2.86l-8.79-2.46c3.02-5.21,8.01-6.72,13.66-6.72s14.17,1.46,14.17,10.47c0,1.79-.34,3.14-.73,5.43ZM178.65,217.24l-2.8,15.74h-10.75l2.63-14.56c.39-2.52.56-3.58.56-4.59,0-1.9-.78-3.13-2.8-3.13-1.85,0-3.86,1.06-5.49,2.8l-3.47,19.49h-10.75l7.06-40.04h10.81l-2.69,14.9h.11c3.25-3.19,6.66-4.71,9.97-4.71,4.82,0,8.46,2.52,8.46,7.39,0,1.62-.39,4.37-.84,6.72Z"/>
  </g>
</svg>